<?xml version="1.0" encoding="UTF-8"?>
<svg xmlns="http://www.w3.org/2000/svg" xmlns:xlink="http://www.w3.org/1999/xlink" width="25px" height="25px" viewBox="0 0 25 25" version="1.1">
<g id="surface1">
<path style=" stroke:none;fill-rule:nonzero;fill:rgb(0%,0%,0%);fill-opacity:1;" d="M 24.980469 1.800781 L 21.855469 22.070312 C 21.78125 22.542969 21.496094 22.957031 21.074219 23.195312 C 20.839844 23.328125 20.574219 23.394531 20.308594 23.394531 C 20.105469 23.394531 19.902344 23.355469 19.710938 23.273438 L 13.722656 20.777344 L 11.238281 24.503906 C 11.050781 24.828125 10.734375 25 10.390625 25 C 9.828125 25 9.375 24.546875 9.375 23.984375 L 9.375 19.289062 C 9.375 18.941406 9.492188 18.601562 9.703125 18.328125 L 20.3125 4.6875 L 5.972656 17.59375 L 0.960938 15.503906 C 0.410156 15.273438 0.0390625 14.757812 0.00390625 14.117188 C -0.0351562 13.476562 0.269531 12.957031 0.789062 12.664062 L 22.664062 0.207031 C 23.183594 -0.0898438 23.828125 -0.0625 24.324219 0.273438 C 24.816406 0.613281 25.074219 1.207031 24.980469 1.800781 Z M 24.980469 1.800781 "/>
</g>
</svg>
